# xmcd
#
# Track frame offsets:
#	150
#	27889
#	39001
#	67884
#	93640
#	125461
#	147246
#	173949
#	176977
#	201386
#	224114
#	234130
#
# Disc length: 3962 seconds
#
# Revision: 1
# Processed by: cddbd v1.5.1PL2 Copyright (c) Steve Scherf et al.
# Submitted via: EasyCDDAExtractor 9.0.0.1
#
DISCID=ad0f780c
DTITLE=Whitesnake - Glasgow Auditorium (Armadillo) 02-12-04 Disc 1
DYEAR=2004
DGENRE=Hard Rock
TTITLE0=Burn
TTITLE1=Stormbringer - Burn
TTITLE2=Bad Boys 
TTITLE3=Love Ain't No Stranger
TTITLE4=Ready An' Willing
TTITLE5=Is This Love
TTITLE6=Give Me All Your Love
TTITLE7=White 'Snakes X-mas'
TTITLE8=Judgement Day
TTITLE9=Guitar Solo
TTITLE10=Band And Guitar Solo
TTITLE11=Crying In The Rain (Incl Drum Solo)
EXTD=
EXTT0=
EXTT1=
EXTT2=
EXTT3=
EXTT4=
EXTT5=
EXTT6=
EXTT7=
EXTT8=
EXTT9=
EXTT10=
EXTT11=
PLAYORDER=
